<?xml version="1.0" encoding="UTF-8" standalone="no"?>
<svg
   xmlns:dc="http://purl.org/dc/elements/1.1/"
   xmlns:cc="http://creativecommons.org/ns#"
   xmlns:rdf="http://www.w3.org/1999/02/22-rdf-syntax-ns#"
   xmlns:svg="http://www.w3.org/2000/svg"
   xmlns="http://www.w3.org/2000/svg"
   xmlns:sodipodi="http://sodipodi.sourceforge.net/DTD/sodipodi-0.dtd"
   xmlns:inkscape="http://www.inkscape.org/namespaces/inkscape"
   version="1.1"
   width="24"
   height="24"
   viewBox="0 0 24 24"
   id="svg4"
   sodipodi:docname="email.svg"
   inkscape:version="0.92.5 (2060ec1f9f, 2020-04-08)">
  <metadata
     id="metadata10">
    <rdf:RDF>
      <cc:Work
         rdf:about="">
        <dc:format>image/svg+xml</dc:format>
        <dc:type
           rdf:resource="http://purl.org/dc/dcmitype/StillImage" />
      </cc:Work>
    </rdf:RDF>
  </metadata>
  <defs
     id="defs8" />
  <sodipodi:namedview
     pagecolor="#ffffff"
     bordercolor="#666666"
     borderopacity="1"
     objecttolerance="10"
     gridtolerance="10"
     guidetolerance="10"
     inkscape:pageopacity="0"
     inkscape:pageshadow="2"
     inkscape:window-width="1920"
     inkscape:window-height="1004"
     id="namedview6"
     showgrid="false"
     inkscape:zoom="45.254834"
     inkscape:cx="12.721343"
     inkscape:cy="14.131672"
     inkscape:window-x="3840"
     inkscape:window-y="0"
     inkscape:window-maximized="1"
     inkscape:current-layer="svg4" />
  <path
     style="fill:#aabccf;fill-opacity:1"
     d="M 12 2.2421875 L 21.029297 7.8925781 C 21.164309 7.9740509 21.286539 8.0740472 21.398438 8.1835938 C 21.28785 8.0719968 21.164869 7.9724354 21.029297 7.890625 L 12 2.2421875 z M 12 2.2421875 L 2.9707031 7.890625 C 2.8419323 7.9683315 2.7250009 8.0628924 2.6191406 8.1679688 C 2.7266608 8.0651234 2.8424345 7.9699816 2.9707031 7.8925781 L 12 2.2421875 z M 21.398438 8.1835938 C 21.48589 8.2718445 21.559919 8.3720661 21.630859 8.4746094 C 21.559356 8.3723214 21.48742 8.2707063 21.398438 8.1835938 z M 21.630859 8.4746094 C 21.6447 8.494409 21.662652 8.5109328 21.675781 8.53125 L 21.677734 8.53125 C 21.664393 8.5105418 21.644862 8.49485 21.630859 8.4746094 z M 21.675781 8.53125 L 19.974609 9.5859375 L 20 9.6015625 L 12 14.601562 L 4 9.6015625 L 4.046875 9.5722656 L 2.3378906 8.5136719 C 2.1302396 8.8272351 2 9.1947189 2 9.6015625 L 2 19.601562 A 2 2 0 0 0 4 21.601562 L 20 21.601562 A 2 2 0 0 0 22 19.601562 L 22 9.6015625 C 22 9.2027773 21.875947 8.8410065 21.675781 8.53125 z M 2.3378906 8.5136719 C 2.3464029 8.500818 2.3564338 8.4892052 2.3652344 8.4765625 C 2.3562391 8.4896024 2.34467 8.5004458 2.3359375 8.5136719 L 2.3378906 8.5136719 z M 2.3652344 8.4765625 C 2.4402308 8.3678453 2.5221249 8.2648001 2.6152344 8.171875 C 2.5202101 8.2632621 2.440722 8.3681198 2.3652344 8.4765625 z M 14.900391 16.28125 C 9.9335936 19.388021 4.9667966 22.494791 14.900391 16.28125 z "
     id="path2" />
  <g
     id="g851" />
  <path
     style="fill:#eaf0f6;fill-opacity:1"
     d="m 12.000775,2.2586946 -9.0292975,5.648438 c -0.257542,0.155413 -0.469659,0.372978 -0.634766,0.623046 l 1.712891,1.0585965 7.9511725,-4.9707055 7.974609,4.9843776 1.703125,-1.0546896 C 21.51211,8.2894716 21.294016,8.0664086 21.030072,7.9071326 Z m 9.677734,6.289063 c -14.4518235,11.3802134 -7.225911,5.6901094 0,0 z M 2.3367115,8.5301786 c -1.5572919,11.3919324 -0.778646,5.6959694 0,0 z M 14.901166,16.297763 c -9.9335945,6.213541 -4.9667963,3.106771 0,0 z M 4.0496025,9.5887751 c -2.699219,10.6862009 -1.34961,5.3431019 0,0 z m 15.9257815,0.01367 c -13.3164065,10.6770859 -6.658203,5.3385449 0,0 z"
     id="path2-3-3"
     inkscape:connector-curvature="0"
     sodipodi:nodetypes="ccccccccccccccccccc" />
</svg>
